<?xml version="1.0" encoding="utf-8"?>
<!-- Generator: Adobe Illustrator 16.0.0, SVG Export Plug-In . SVG Version: 6.00 Build 0)  -->
<!DOCTYPE svg PUBLIC "-//W3C//DTD SVG 1.1//EN" "http://www.w3.org/Graphics/SVG/1.1/DTD/svg11.dtd">
<svg version="1.1" id="Layer_1" xmlns="http://www.w3.org/2000/svg" xmlns:xlink="http://www.w3.org/1999/xlink" x="0px" y="0px"
	 width="234.049px" height="96.237px" viewBox="0 0 234.049 96.237" enable-background="new 0 0 234.049 96.237"
	 xml:space="preserve">
<g>
	<g>
		<path fill-rule="evenodd" clip-rule="evenodd" fill="#F47B20" d="M107.334,2.104c10.563-0.184,19.194,8.23,19.378,18.792
			c0.185,10.564-8.795,19.318-19.357,19.502l-0.007-12.153h0.071c3.875,0,7.016-3.143,7.016-7.018c0-3.875-3.141-7.018-7.016-7.018
			l-0.08,0.001L107.334,2.104z"/>
		<g>
			<path fill-rule="evenodd" clip-rule="evenodd" fill="#D60C8C" d="M179.2,21.044c0.185,10.563-8.229,19.195-18.79,19.378
				c-10.563,0.185-19.317-8.794-19.503-19.356l12.153-0.007v0.071c0,3.875,3.143,7.017,7.017,7.017c3.877,0,7.018-3.142,7.018-7.017
				l-0.001-0.08L179.2,21.044z"/>
		</g>
		<g>
			<path fill-rule="evenodd" clip-rule="evenodd" fill="#00502F" d="M233.81,21.044c0.183,10.564-8.229,19.195-18.792,19.378
				c-10.563,0.185-19.317-8.794-19.502-19.357l12.153-0.007v0.071c0,3.875,3.142,7.017,7.017,7.017s7.017-3.142,7.017-7.017v-0.079
				L233.81,21.044z"/>
			<path fill-rule="evenodd" clip-rule="evenodd" fill="#00502F" d="M182.51,19.381c-0.185-10.563,8.229-19.195,18.791-19.378
				c10.562-0.185,19.316,8.794,19.502,19.356l-12.153,0.007v-0.071c0-3.875-3.143-7.016-7.017-7.016
				c-3.876,0-7.018,3.142-7.018,7.016l0.001,0.08L182.51,19.381z"/>
		</g>
		<path fill="#C41230" d="M19.53,1.975c-10.659,0-19.297,8.64-19.297,19.297c0,10.658,8.638,19.297,19.297,19.297
			s19.297-8.639,19.297-19.297C38.828,10.615,30.189,1.975,19.53,1.975z M19.531,28.232c-3.857,0-6.983-3.126-6.983-6.982
			s3.126-6.983,6.983-6.983s6.983,3.126,6.983,6.983S23.388,28.232,19.531,28.232z"/>
		<g>
			<g>
				<circle fill="#FDB913" cx="63.614" cy="21.25" r="6.983"/>
				<path fill="#FDB913" d="M63.614,21.25"/>
			</g>
			<g>
				<circle fill="#FDB913" cx="82.566" cy="21.25" r="6.982"/>
				<path fill="#FDB913" d="M82.566,21.25"/>
			</g>
		</g>
	</g>
	<g>
		<path fill="#FFFFFF" d="M16.012,58.987c2.909,0,5.863,0.692,9.46,1.823l2.316,0.69l-0.59,2.956l-2.416-0.738
			c-3.547-1.084-6.355-1.724-8.721-1.724c-7.737,0-12.711,4.78-12.711,15.618c0,10.889,5.074,15.619,12.761,15.619
			c2.414,0,5.173-0.64,8.671-1.725l2.416-0.74l0.59,2.958l-2.316,0.74c-3.645,1.131-6.551,1.773-9.46,1.773
			C6.798,96.237,0,90.668,0,77.612C0,64.901,6.997,58.987,16.012,58.987z"/>
		<path fill="#FFFFFF" d="M47.346,96.237c-9.806,0-16.408-6.653-16.408-18.625c0-11.873,6.799-18.625,16.655-18.625
			c9.755,0,16.358,6.701,16.358,18.625C63.951,89.731,57.199,96.237,47.346,96.237z M47.444,61.847
			c-8.277,0-13.304,5.664-13.304,15.765c0,10.199,5.224,15.866,13.401,15.866c8.18,0,13.154-5.617,13.154-15.866
			C60.696,67.51,55.624,61.847,47.444,61.847z"/>
		<path fill="#FFFFFF" d="M73.701,95.841h-3.006V61.303c0-1.673,0.936-2.463,2.316-2.463c1.034,0,1.923,0.492,2.561,1.478
			l20.006,31.434V59.186h2.957v34.486c0,1.677-0.936,2.416-2.318,2.416c-1.081,0-1.87-0.493-2.511-1.479L73.701,63.176V95.841z"/>
		<path fill="#FFFFFF" d="M131.231,95.841l-2.217-6.7h-13.649l-2.267,6.7h-8.08l11.727-33.305c0.837-2.466,2.66-3.746,5.717-3.746
			c2.906,0,4.827,1.332,5.616,3.694l11.332,33.356H131.231z M122.312,66.923l-5.371,16.307h10.544L122.312,66.923z"/>
		<path fill="#FFFFFF" d="M164.681,95.841l-5.715-13.5h-8.082v13.5h-8.03V63.471c0-2.561,1.774-4.285,4.582-4.285h12.614
			c7.094,0,11.381,3.744,11.381,10.592c0,3.006-1.282,5.47-3.007,7.587l-2.264,2.76l6.996,15.717H164.681z M158.817,65h-7.934
			v11.528h9.51l1.479-1.971c0.986-1.33,1.823-2.809,1.823-4.583C163.696,67.02,162.267,65,158.817,65z"/>
		<path fill="#FFFFFF" d="M193.253,65.394v30.448h-8.127V65.394h-10.545v-6.208H203.8v6.208H193.253z"/>
		<path fill="#FFFFFF" d="M212.812,95.841c-2.907,0-4.632-1.624-4.632-4.284V63.522c0-2.662,1.725-4.336,4.632-4.336h21.135v6.061
			h-17.735v9.016h15.519v5.814h-15.519v9.753h17.837v6.011H212.812z"/>
	</g>
</g>
</svg>
